<?xml version="1.0" standalone="no"?>
<!DOCTYPE svg PUBLIC "-//W3C//DTD SVG 20010904//EN"
 "http://www.w3.org/TR/2001/REC-SVG-20010904/DTD/svg10.dtd">
<svg version="1.0" xmlns="http://www.w3.org/2000/svg"
 width="512.000000pt" height="512.000000pt" viewBox="0 0 512.000000 512.000000"
 preserveAspectRatio="xMidYMid meet">

<g transform="translate(0.000000,512.000000) scale(0.100000,-0.100000)"
fill="#000000" stroke="none">
<path d="M2385 5106 c-348 -58 -635 -241 -820 -520 -142 -217 -200 -410 -199
-671 0 -213 33 -355 124 -535 51 -99 1058 -1705 1070 -1705 12 0 1019 1606
1070 1705 91 180 124 322 124 535 1 217 -36 375 -132 557 -168 322 -468 548
-827 623 -107 23 -309 28 -410 11z m360 -459 c269 -75 478 -288 546 -557 8
-31 14 -105 14 -170 0 -123 -12 -188 -53 -285 -93 -219 -290 -387 -522 -446
-71 -18 -269 -18 -340 0 -232 59 -429 227 -522 446 -41 97 -53 162 -53 285 0
123 12 188 53 285 93 220 305 400 522 444 30 6 64 13 75 15 37 9 229 -3 280
-17z"/>
<path d="M2471 4359 c-227 -44 -391 -278 -353 -505 32 -196 180 -344 376 -376
289 -48 556 219 508 508 -42 255 -281 422 -531 373z"/>
<path d="M688 1663 l-186 -448 586 -3 c322 -1 586 -1 588 0 1 2 25 188 53 413
28 226 54 427 57 448 l6 37 -459 0 -458 0 -187 -447z"/>
<path d="M3326 2078 c3 -18 29 -219 58 -446 29 -226 55 -414 58 -417 3 -3 268
-4 590 -3 l586 3 -186 448 -187 447 -462 0 -462 0 5 -32z"/>
<path d="M2022 1548 c-23 -183 -40 -333 -38 -335 2 -2 115 -2 252 -1 l250 3
-207 328 c-114 181 -209 330 -211 333 -3 2 -23 -146 -46 -328z"/>
<path d="M2840 1542 l-206 -327 244 -3 c135 -1 247 0 250 3 6 6 -65 596 -76
632 -6 17 -46 -41 -212 -305z"/>
<path d="M189 458 l-187 -453 761 -3 c418 -1 761 -1 763 0 1 2 25 192 54 423
28 231 53 435 57 453 l5 32 -634 0 -633 0 -186 -452z"/>
<path d="M1940 900 c0 -13 -99 -817 -106 -863 l-6 -37 731 0 731 0 -6 43 c-3
23 -29 226 -58 452 l-51 410 -618 3 c-393 1 -617 -1 -617 -8z"/>
<path d="M3480 898 c0 -19 111 -893 114 -896 2 -1 345 -1 763 0 l761 3 -187
453 -186 452 -632 0 c-485 0 -633 -3 -633 -12z"/>
</g>
</svg>
