<svg width="123" height="102" viewBox="0 0 123 102" fill="none" xmlns="http://www.w3.org/2000/svg">
<path d="M114.008 25.1843C109.058 17.9613 100.181 11.2073 88.8302 7.57326C88.4806 7.4579 88.1684 7.2508 87.9261 6.97357C87.6839 6.69634 87.5206 6.35917 87.4532 5.99726C87.1536 4.51265 86.4102 3.15404 85.3214 2.10131C84.2325 1.04858 82.8496 0.351385 81.3558 0.102029C79.8619 -0.147328 78.3275 0.0629174 76.9558 0.704928C75.5841 1.34694 74.4397 2.39044 73.6742 3.69726C73.4916 4.01898 73.2251 4.28515 72.9032 4.46741C72.5813 4.64967 72.216 4.74121 71.8462 4.73226C44.4462 3.88626 25.1282 21.5103 22.5632 51.7013C22.514 52.3211 22.272 52.9099 21.8712 53.3853C18.4592 57.3963 2.04318 76.7263 1.45218 77.6403C-0.607824 80.8233 -0.797824 85.8493 3.00618 88.5883C4.7265 89.8969 6.82282 90.6161 8.98418 90.6393C14.8572 90.6393 20.3382 85.2463 24.4512 81.0443C24.7013 80.7872 25.0161 80.6025 25.3625 80.5094C25.7088 80.4163 26.0739 80.4183 26.4192 80.5153C40.9512 84.7233 51.4702 96.2153 58.2882 99.8043C61.0855 101.248 64.2858 101.713 67.3782 101.124C79.6482 99.1043 92.6582 84.1843 97.4782 78.1443C98.0941 77.3771 98.8825 76.7661 99.7791 76.3613C100.676 75.9564 101.655 75.7689 102.638 75.8143C105.158 75.9243 107.898 75.9342 110.448 75.9143C113.233 75.8782 115.912 74.844 117.999 72.9996C120.085 71.1553 121.44 68.6234 121.818 65.8643C123.968 50.6443 122.948 38.2243 114.008 25.1843ZM8.98418 87.6393C7.45268 87.6138 5.97067 87.0928 4.76018 86.1543C4.25688 85.7945 3.83448 85.3333 3.52017 84.8004C3.20585 84.2676 3.00658 83.6748 2.93518 83.0603C2.88517 82.6471 2.88517 82.2294 2.93518 81.8163C7.65118 78.8903 13.9552 77.9773 21.8202 79.4363C18.1562 83.1623 13.4272 87.6393 8.98418 87.6393ZM93.8012 73.8813C93.7241 74.07 93.6105 74.2416 93.4668 74.3862C93.3231 74.5308 93.1522 74.6455 92.9639 74.7236C92.7756 74.8018 92.5737 74.842 92.3699 74.8417C92.166 74.8415 91.9643 74.8009 91.7762 74.7223C85.3541 71.8953 79.1069 68.6865 73.0682 65.1133C64.6522 60.3363 56.7042 55.8243 46.6182 53.4573C40.1135 51.9464 33.3632 51.8244 26.8082 53.0993C26.594 53.1415 26.3731 53.1365 26.161 53.0846C25.9489 53.0327 25.7507 52.9351 25.5802 52.7986C25.4098 52.6622 25.2712 52.4901 25.1741 52.2945C25.077 52.099 25.0238 51.8845 25.0182 51.6663C25.0187 51.3025 25.1471 50.9506 25.3809 50.672C25.6147 50.3934 25.9391 50.2058 26.2972 50.1423C33.2489 48.7976 40.4059 48.9322 47.3022 50.5373C57.8022 53.0023 65.9372 57.6173 74.5452 62.5043C79.4612 65.2953 89.4822 70.1883 93.0452 71.9163C93.3969 72.0868 93.6702 72.385 93.8096 72.7501C93.949 73.1152 93.9438 73.5198 93.7952 73.8813H93.8012Z" fill="#FDA232"/>
</svg>
